# xmcd CD database file
#
# Track frame offsets:
#	150
#	15074
#	32405
#	51214
#	68646
#	85569
#	100751
#	115700
#	133388
#	150576
#	168191
#	184373
#	200303
#	216604
#
# Disc length: 3120 seconds
#
# Revision: 2
# Processed by: cddbd v1.5.2PL0 Copyright (c) Steve Scherf et al.
# Submitted via: CDex 1.70beta2
#
DISCID=af0c2e0e
DTITLE=Инна Афанасьева - Жемчуга
DYEAR=2004
DGENRE=Pop
TTITLE0=Звезды
TTITLE1=Жемчуга
TTITLE2=Вечер
TTITLE3=Зеркала
TTITLE4=Слепая любовь
TTITLE5=Найди меня
TTITLE6=Танцуй со мной
TTITLE7=Знаю
TTITLE8=Если ты уйдешь
TTITLE9=Ухожу
TTITLE10=Рождество
TTITLE11=Ша-ла-лу-ла
TTITLE12=Я читаю тебя по глазам
TTITLE13=Жемчуга - ремикс
EXTD=YEAR: 2004
EXTT0=
EXTT1=
EXTT2=
EXTT3=
EXTT4=
EXTT5=
EXTT6=
EXTT7=
EXTT8=
EXTT9=
EXTT10=
EXTT11=
EXTT12=
EXTT13=
PLAYORDER=
